<svg xmlns="http://www.w3.org/2000/svg" width="20" height="19.171" viewBox="0 0 20 19.171">
  <defs>
    <style>
      .cls-1 {
        fill: #fff;
        opacity: 0.67;
      }
    </style>
  </defs>
  <path id="dp_shoucang1_icon" class="cls-1" d="M15.2,39.65a1.527,1.527,0,0,1-.74-.2L10.42,37.331a.787.787,0,0,0-.4-.1,1.183,1.183,0,0,0-.4.08L5.6,39.45a1.441,1.441,0,0,1-.76.2,1.7,1.7,0,0,1-1.259-.58,1.572,1.572,0,0,1-.36-1.319L4,33.273a.9.9,0,0,0-.26-.76L.5,29.375A1.6,1.6,0,0,1,.085,27.7,1.651,1.651,0,0,1,1.4,26.576l4.478-.66a.891.891,0,0,0,.66-.46l2-4.078a1.633,1.633,0,0,1,2.919,0l2,4.078a.876.876,0,0,0,.66.46l4.478.66a1.662,1.662,0,0,1,1.319,1.1,1.63,1.63,0,0,1-.4,1.679L16.3,32.513a.842.842,0,0,0-.26.76l.76,4.458a1.657,1.657,0,0,1-1.6,1.919Z" transform="translate(0 -20.479)"/>
</svg>
