<svg xmlns="http://www.w3.org/2000/svg" xmlns:xlink="http://www.w3.org/1999/xlink" width="31.004" height="27.211" viewBox="0 0 31.004 27.211">
  <defs>
    <style>
      .cls-1 {
        fill: #fff;
      }

      .cls-2 {
        filter: url(#减去_1);
      }
    </style>
    <filter id="减去_1" x="0" y="0" width="31.004" height="27.211" filterUnits="userSpaceOnUse">
      <feOffset dy="1" input="SourceAlpha"/>
      <feGaussianBlur stdDeviation="1.5" result="blur"/>
      <feFlood flood-opacity="0.451"/>
      <feComposite operator="in" in2="blur"/>
      <feComposite in="SourceGraphic"/>
    </filter>
  </defs>
  <g id="dp_youhuiquan_icon" transform="translate(-147.25 -344.999)">
    <g class="cls-2" transform="matrix(1, 0, 0, 1, 147.25, 345)">
      <path id="减去_1-2" data-name="减去 1" class="cls-1" d="M-270.459-1025.555h-19.077a1.465,1.465,0,0,1-1.463-1.464v-3.958a1.486,1.486,0,0,1,.768-1.282,2.79,2.79,0,0,0,1.382-2.4,2.789,2.789,0,0,0-1.382-2.4,1.486,1.486,0,0,1-.768-1.282v-3.958a1.465,1.465,0,0,1,1.463-1.464h19.077A1.465,1.465,0,0,1-269-1042.3v3.958a1.486,1.486,0,0,1-.768,1.282,2.79,2.79,0,0,0-1.382,2.4,2.791,2.791,0,0,0,1.382,2.4,1.486,1.486,0,0,1,.768,1.282v3.958A1.465,1.465,0,0,1-270.459-1025.555Zm-13.393-7.588a1.289,1.289,0,0,0-1.148,1.391,1.289,1.289,0,0,0,1.148,1.391h7.722a1.289,1.289,0,0,0,1.148-1.391,1.289,1.289,0,0,0-1.148-1.391Zm0-5.818a1.289,1.289,0,0,0-1.148,1.391,1.289,1.289,0,0,0,1.148,1.391h7.722a1.289,1.289,0,0,0,1.148-1.391,1.289,1.289,0,0,0-1.148-1.391Z" transform="translate(295.5 1047.27)"/>
    </g>
  </g>
</svg>
