<svg xmlns="http://www.w3.org/2000/svg" width="79" height="30.36" viewBox="0 0 79 30.36">
  <defs>
    <style>
      .cls-1, .cls-2 {
        fill: #302e2e;
      }

      .cls-1 {
        stroke: rgba(0,0,0,0);
        stroke-miterlimit: 10;
      }

      .cls-3 {
        fill: #1a1311;
      }

      .cls-4 {
        fill: #00cb88;
      }
    </style>
  </defs>
  <g id="qbay_logo" transform="translate(-266.335 -330.187)">
    <path id="减去_2" data-name="减去 2" class="cls-1" d="M7.222,24.331H4.964c-2.1,0-2.5-.035-3.03-.271A3.9,3.9,0,0,1,.4,22.8a3.879,3.879,0,0,1-.251-.673A4.729,4.729,0,0,1,.006,21C0,20.826,0,20.744,0,20.5c0-.156,0-.371,0-.715,0,0,0-.24,0-.7,0-.421,0-.627,0-.969,0-.239,0-.548,0-1.045s0-1.155,0-1.955c0-1.032,0-2.284,0-3.658,0-1.047,0-2.346,0-3.6v-.05c0-1.056,0-2.075,0-2.878V3.562c0-.128,0-.257,0-.382s0-.246,0-.368v-.06a3.442,3.442,0,0,1,.035-.67,2.882,2.882,0,0,1,.1-.409A2.551,2.551,0,0,1,.868.6,2.269,2.269,0,0,1,2.157.01C2.227,0,2.3,0,2.367,0a2.245,2.245,0,0,1,2.05,1.359,6.5,6.5,0,0,1,.236,1.217c.01.114.025.27.027,1.341,0,.519,0,.9,0,.919,0,.619-.008,1.275-.014,1.95.881-.022,1.757-.033,2.6-.033,1.277,0,2.533.025,3.735.074a6.481,6.481,0,0,1,2.305.43,6.6,6.6,0,0,1,2.734,2.161,8.811,8.811,0,0,1,1.4,2.649,10,10,0,0,1,.466,3.092,11.193,11.193,0,0,1-.241,2.424,8.676,8.676,0,0,1-1.6,3.513,8.517,8.517,0,0,1-1.586,1.561A7.98,7.98,0,0,1,12.295,23.8c-.439.122-.886.224-1.329.3a20.326,20.326,0,0,1-3.42.224ZM4.883,10.4v9.742h4.41a3.282,3.282,0,0,0,2.761-1.459,5.593,5.593,0,0,0,1.062-3.363A5.51,5.51,0,0,0,11.973,11.9,3.533,3.533,0,0,0,9.064,10.4Z" transform="translate(288.632 330.687)"/>
    <path id="路径_107" data-name="路径 107" class="cls-2" d="M375.065,362.438a2.6,2.6,0,0,1-1.18.435,17.9,17.9,0,0,1-3.287.27c-2.444-.012-3.666-.017-4.2-.015,0,0-1.044.006-2.435-.124a4.6,4.6,0,0,1-1.78-.416,6.358,6.358,0,0,1-.929-.585,7.059,7.059,0,0,1-.9-.726A5.178,5.178,0,0,1,359.4,360a4.747,4.747,0,0,1-.5-2.237,5.252,5.252,0,0,1,1.325-3.678,4.3,4.3,0,0,1,3.321-1.455c1.671,0,3.16-.058,5.187,0,1.692.048.8,0,.8,0s.108,0,.118,0a3.081,3.081,0,0,0,1.058-.113,1.574,1.574,0,0,0,.686-.5,1.223,1.223,0,0,0,.21-.568,1.286,1.286,0,0,0-.128-.676,1.638,1.638,0,0,0-.251-.385,2.259,2.259,0,0,0-.407-.381,2.871,2.871,0,0,0-.922-.441,4.442,4.442,0,0,0-1.374-.148h-7.531a1.874,1.874,0,0,1-.189-3.74h7.941a11.666,11.666,0,0,1,3.576.409,5.5,5.5,0,0,1,2.034,1.228,5.71,5.71,0,0,1,1.443,2.357,10.919,10.919,0,0,1,.307,1.748c.05.377.126.952.158,1.7.017.386,0,.394,0,1.831,0,.173,0,.6,0,1.445,0,.971,0,1.165,0,1.644,0,.418,0,.776,0,1,0,.143,0,.215,0,.244a6.617,6.617,0,0,1-.183,1.434A3.011,3.011,0,0,1,375.065,362.438Zm-3.606-3.25v-3.313h-5.774a2.126,2.126,0,0,0-1.394.471,1.536,1.536,0,0,0-.574,1.251,1.407,1.407,0,0,0,.558,1.137,1.965,1.965,0,0,0,1.279.455Z" transform="translate(-50.389 -8.158)"/>
    <path id="路径_108" data-name="路径 108" class="cls-2" d="M419.429,346.838q-.014,7.747-.028,15.494a4.391,4.391,0,0,1-.459,2.017,5.555,5.555,0,0,1-1.214,1.591,6.5,6.5,0,0,1-2.362,1.345,10.356,10.356,0,0,1-2.92.361h-7.818a1.826,1.826,0,1,1,.231-3.543h7.975a1.9,1.9,0,0,0,1.185-.432,1.748,1.748,0,0,0,.757-1.4v-.665h-5.264a8.339,8.339,0,0,1-2.566-.344,5.234,5.234,0,0,1-2.039-1.326,5.666,5.666,0,0,1-1.744-4.224v-9.133a2.406,2.406,0,1,1,4.784,0q-.014,4.449-.027,8.9a4.323,4.323,0,0,0,.082.981,1.706,1.706,0,0,0,.464.719,2,2,0,0,0,.878.54,4.36,4.36,0,0,0,1.226.147h4.207V346.686a2.409,2.409,0,1,1,4.654.153Z" transform="translate(-74.122 -7.103)"/>
    <path id="路径_109" data-name="路径 109" class="cls-3" d="M392.917,391.458" transform="translate(-68.91 -33.083)"/>
    <path id="路径_110" data-name="路径 110" class="cls-4" d="M284.973,336.942a5.845,5.845,0,0,0-5.845-5.845H272.18a5.845,5.845,0,0,0-5.845,5.845V349.4a5.845,5.845,0,0,0,5.845,5.845h6.947a5.845,5.845,0,0,0,5.845-5.845Zm-6.732,13.695h-5.174a2.332,2.332,0,0,1-2.332-2.332V338.281a2.332,2.332,0,0,1,2.332-2.333h5.175a2.332,2.332,0,0,1,2.332,2.332V348.3A2.332,2.332,0,0,1,278.241,350.637Z" transform="translate(0 -0.223)"/>
    <rect id="矩形_101" data-name="矩形 101" class="cls-4" width="4.566" height="9.168" rx="2.283" transform="translate(288.105 355.604) rotate(135)"/>
  </g>
</svg>
