<svg xmlns="http://www.w3.org/2000/svg" viewBox="0 0 24 24"><defs><style>.cls-1{fill:#fff;stroke:#e83828;}.cls-1,.cls-2,.cls-3,.cls-4,.cls-5{stroke-miterlimit:10;}.cls-1,.cls-2,.cls-3,.cls-4{stroke-width:0.1px;}.cls-2,.cls-3,.cls-4,.cls-5{fill:none;}.cls-2{stroke:#13ae67;}.cls-3{stroke:#036eb8;}.cls-4{stroke:#6a3906;}.cls-5{stroke:#25a384;stroke-linecap:round;stroke-width:1.6px;}</style></defs><title>店铺2</title><g id="图层_1" data-name="图层 1"><rect class="cls-1" x="1" y="1" width="22" height="22"/><rect class="cls-2" x="1" y="3" width="22" height="18"/><rect class="cls-3" x="3" y="1" width="18" height="22"/><rect class="cls-4" x="2" y="2" width="20" height="20"/></g><g id="图层_2" data-name="图层 2"><path class="cls-5" d="M21,9.66,19.8,2.87H3.9L2.75,9.66a1.9,1.9,0,0,0,.31,1.85A2.42,2.42,0,0,0,5.3,12.57a2.28,2.28,0,0,0,1.94-2.14h0a2.3,2.3,0,0,0,4.6,0h0a2.31,2.31,0,0,0,4.61,0h0a2.28,2.28,0,0,0,1.94,2.14,2.4,2.4,0,0,0,2.24-1.06A1.9,1.9,0,0,0,21,9.66Z"/><polyline class="cls-5" points="19.57 14.61 19.57 21.14 4.13 21.14 4.13 14.61"/></g></svg>