<svg xmlns="http://www.w3.org/2000/svg" xmlns:xlink="http://www.w3.org/1999/xlink" width="117" height="115" viewBox="0 0 117 115">
  <defs>
    <style>
      .cls-1 {
        fill: #fff;
      }

      .cls-2 {
        fill: #227be1;
      }

      .cls-3 {
        filter: url(#椭圆_27);
      }
    </style>
    <filter id="椭圆_27" x="0" y="0" width="117" height="115" filterUnits="userSpaceOnUse">
      <feOffset dy="10" input="SourceAlpha"/>
      <feGaussianBlur stdDeviation="10" result="blur"/>
      <feFlood flood-color="#6b819a" flood-opacity="0.129"/>
      <feComposite operator="in" in2="blur"/>
      <feComposite in="SourceGraphic"/>
    </filter>
  </defs>
  <g id="zc_google_button" transform="translate(30.404 19.807)">
    <g class="cls-3" transform="matrix(1, 0, 0, 1, -30.4, -19.81)">
      <ellipse id="椭圆_27-2" data-name="椭圆 27" class="cls-1" cx="28.5" cy="27.5" rx="28.5" ry="27.5" transform="translate(30 20)"/>
    </g>
    <path id="路径_86" data-name="路径 86" class="cls-2" d="M161.444,139.139H149.2v5.033h7a5.973,5.973,0,0,1-2.6,3.925,7.835,7.835,0,1,1-4.4-14.422,7.027,7.027,0,0,1,4.969,1.945l3.728-3.732a12.481,12.481,0,0,0-8.7-3.389,13.007,13.007,0,0,0,0,26.013,12.4,12.4,0,0,0,8.6-3.152,12.694,12.694,0,0,0,3.877-9.561A15.089,15.089,0,0,0,161.444,139.139Z" transform="translate(-121.027 -113.989)"/>
  </g>
</svg>
