<svg xmlns="http://www.w3.org/2000/svg" width="22" height="9.253" viewBox="0 0 22 9.253">
  <defs>
    <style>
      .cls-1 {
        fill: #3f3c3c;
      }
    </style>
  </defs>
  <path id="zc_yanjing2" class="cls-1" d="M149.747,303.281l-2.35-1.651a.824.824,0,0,0-.348-.9.834.834,0,0,0-1.15.251,8.547,8.547,0,0,1-13.882.747,9.065,9.065,0,0,1-.536-.746.831.831,0,1,0-1.4.9c.038.059.083.113.123.172l-1.75,1.229a.832.832,0,1,0,.958,1.362l1.833-1.289a10.2,10.2,0,0,0,2.262,1.823l-1.592,1.858a.832.832,0,0,0,1.264,1.082l1.879-2.194a10.189,10.189,0,0,0,3.162.651v2.447a.832.832,0,1,0,1.664,0v-2.5a10.13,10.13,0,0,0,3.039-.861l2.1,2.452a.832.832,0,0,0,1.264-1.082l-1.882-2.2a10.193,10.193,0,0,0,2.056-1.832l2.329,1.637a.832.832,0,0,0,.958-1.362Z" transform="translate(-128.1 -300.6)"/>
</svg>
