<svg xmlns="http://www.w3.org/2000/svg" width="18.667" height="14.187" viewBox="0 0 18.667 14.187">
  <defs>
    <style>
      .cls-1 {
        fill: #00cb88;
      }

      .cls-2 {
        fill: #3f3c3c;
      }
    </style>
  </defs>
  <g id="zc_youxiang_icon" transform="translate(-141 -240)">
    <path id="路径_82" data-name="路径 82" class="cls-1" d="M20.506,994.339a2.078,2.078,0,0,1-1.473-.609l-7.352-7.352,1.056-1.056,7.352,7.352a.591.591,0,0,0,.835,0l7.352-7.352,1.056,1.056-7.352,7.352A2.078,2.078,0,0,1,20.506,994.339Z" transform="translate(130.067 -744.575)"/>
    <path id="路径_81" data-name="路径 81" class="cls-2" d="M27.2,998.187H13.468A2.412,2.412,0,0,1,11,995.842v-9.5A2.412,2.412,0,0,1,13.468,984H27.2a2.412,2.412,0,0,1,2.468,2.345v9.5A2.412,2.412,0,0,1,27.2,998.187Zm-13.73-12.768a.953.953,0,0,0-.975.926v9.5a.953.953,0,0,0,.975.926H27.2a.953.953,0,0,0,.975-.926v-9.5a.953.953,0,0,0-.975-.926Z" transform="translate(130 -744)"/>
  </g>
</svg>
